<svg width="18" height="18" viewBox="0 0 18 18" fill="none" xmlns="http://www.w3.org/2000/svg">
<path d="M0.959135 10.2235H6.71394C6.96832 10.2235 7.21228 10.1225 7.39215 9.94262C7.57203 9.76275 7.67308 9.51879 7.67308 9.26441V1.59134C7.67308 1.33696 7.57203 1.093 7.39215 0.913126C7.21228 0.733254 6.96832 0.632202 6.71394 0.632202H0.959135C0.704756 0.632202 0.460797 0.733254 0.280924 0.913126C0.101051 1.093 0 1.33696 0 1.59134V9.26441C0 9.51879 0.101051 9.76275 0.280924 9.94262C0.460797 10.1225 0.704756 10.2235 0.959135 10.2235ZM0 16.9375C0 17.1919 0.101051 17.4358 0.280924 17.6157C0.460797 17.7956 0.704756 17.8966 0.959135 17.8966H6.71394C6.96832 17.8966 7.21228 17.7956 7.39215 17.6157C7.57203 17.4358 7.67308 17.1919 7.67308 16.9375V13.101C7.67308 12.8466 7.57203 12.6026 7.39215 12.4227C7.21228 12.2429 6.96832 12.1418 6.71394 12.1418H0.959135C0.704756 12.1418 0.460797 12.2429 0.280924 12.4227C0.101051 12.6026 0 12.8466 0 13.101V16.9375ZM9.59135 16.9375C9.59135 17.1919 9.6924 17.4358 9.87227 17.6157C10.0521 17.7956 10.2961 17.8966 10.5505 17.8966H16.3053C16.5597 17.8966 16.8036 17.7956 16.9835 17.6157C17.1634 17.4358 17.2644 17.1919 17.2644 16.9375V10.2235C17.2644 9.96917 17.1634 9.72521 16.9835 9.54534C16.8036 9.36547 16.5597 9.26441 16.3053 9.26441H10.5505C10.2961 9.26441 10.0521 9.36547 9.87227 9.54534C9.6924 9.72521 9.59135 9.96917 9.59135 10.2235V16.9375ZM10.5505 7.34614H16.3053C16.5597 7.34614 16.8036 7.24509 16.9835 7.06522C17.1634 6.88535 17.2644 6.64139 17.2644 6.38701V1.59134C17.2644 1.33696 17.1634 1.093 16.9835 0.913126C16.8036 0.733254 16.5597 0.632202 16.3053 0.632202H10.5505C10.2961 0.632202 10.0521 0.733254 9.87227 0.913126C9.6924 1.093 9.59135 1.33696 9.59135 1.59134V6.38701C9.59135 6.64139 9.6924 6.88535 9.87227 7.06522C10.0521 7.24509 10.2961 7.34614 10.5505 7.34614Z" fill="white"/>
</svg>
