<svg width="161" height="35" viewBox="0 0 161 35" fill="none" xmlns="http://www.w3.org/2000/svg">
<path d="M37.6442 10.0016C39.3476 10.0016 40.8362 10.3316 42.1099 10.9915C43.399 11.636 44.3888 12.5721 45.0794 13.7998C45.7853 15.0122 46.1383 16.4317 46.1383 18.0584C46.1383 19.6851 45.7853 21.0969 45.0794 22.2939C44.3888 23.4909 43.399 24.4117 42.1099 25.0562C40.8362 25.6854 39.3476 26 37.6442 26H32.4188V10.0016H37.6442ZM37.6442 23.8592C39.5164 23.8592 40.9513 23.3528 41.9488 22.3399C42.9463 21.3271 43.445 19.8999 43.445 18.0584C43.445 16.2015 42.9463 14.7513 41.9488 13.7077C40.9513 12.6642 39.5164 12.1424 37.6442 12.1424H35.043V23.8592H37.6442ZM47.8644 19.6007C47.8644 18.3269 48.1253 17.199 48.647 16.2168C49.1841 15.2347 49.9054 14.475 50.8108 13.9379C51.7316 13.3855 52.7444 13.1092 53.8494 13.1092C54.8469 13.1092 55.7139 13.3087 56.4505 13.7077C57.2025 14.0914 57.801 14.5748 58.246 15.1579V13.3164H60.8933V26H58.246V24.1124C57.801 24.7109 57.1948 25.2097 56.4275 25.6087C55.6602 26.0077 54.7855 26.2072 53.8033 26.2072C52.7138 26.2072 51.7163 25.9309 50.8108 25.3785C49.9054 24.8107 49.1841 24.028 48.647 23.0305C48.1253 22.0177 47.8644 20.8744 47.8644 19.6007ZM58.246 19.6467C58.246 18.772 58.0619 18.0123 57.6936 17.3678C57.3406 16.7232 56.8726 16.2322 56.2894 15.8946C55.7063 15.5569 55.0771 15.3881 54.4018 15.3881C53.7266 15.3881 53.0974 15.5569 52.5143 15.8946C51.9311 16.2168 51.4554 16.7002 51.0871 17.3448C50.7341 17.974 50.5576 18.7259 50.5576 19.6007C50.5576 20.4754 50.7341 21.2427 51.0871 21.9026C51.4554 22.5625 51.9311 23.0689 52.5143 23.4218C53.1128 23.7595 53.7419 23.9283 54.4018 23.9283C55.0771 23.9283 55.7063 23.7595 56.2894 23.4218C56.8726 23.0842 57.3406 22.5932 57.6936 21.9486C58.0619 21.2887 58.246 20.5214 58.246 19.6467ZM68.9439 26.2072C67.9464 26.2072 67.0486 26.0307 66.2506 25.6777C65.468 25.3094 64.8464 24.8183 64.3861 24.2045C63.9257 23.5753 63.6801 22.8771 63.6494 22.1097H66.3657C66.4118 22.6469 66.665 23.0996 67.1254 23.4679C67.6011 23.8208 68.1919 23.9973 68.8978 23.9973C69.6344 23.9973 70.2023 23.8592 70.6013 23.583C71.0156 23.2914 71.2228 22.9231 71.2228 22.4781C71.2228 22.0023 70.9926 21.6494 70.5322 21.4192C70.0872 21.189 69.3736 20.9358 68.3914 20.6595C67.4399 20.3987 66.665 20.1454 66.0665 19.8999C65.468 19.6544 64.9462 19.2784 64.5012 18.772C64.0715 18.2655 63.8566 17.598 63.8566 16.7693C63.8566 16.0941 64.0561 15.4802 64.4551 14.9277C64.8541 14.3599 65.4219 13.9149 66.1585 13.5926C66.9105 13.2704 67.7699 13.1092 68.7367 13.1092C70.1792 13.1092 71.3379 13.4775 72.2126 14.2142C73.1027 14.9354 73.5784 15.9252 73.6398 17.1836H71.0156C70.9696 16.6158 70.7394 16.1631 70.325 15.8255C69.9107 15.4879 69.3505 15.3191 68.6446 15.3191C67.954 15.3191 67.4246 15.4495 67.0563 15.7104C66.688 15.9713 66.5038 16.3166 66.5038 16.7463C66.5038 17.0839 66.6266 17.3678 66.8721 17.598C67.1177 17.8282 67.4169 18.0123 67.7699 18.1504C68.1229 18.2732 68.6446 18.4343 69.3352 18.6338C70.256 18.8794 71.0079 19.1326 71.5911 19.3935C72.1896 19.639 72.7037 20.0073 73.1334 20.4984C73.5631 20.9895 73.7856 21.6417 73.8009 22.455C73.8009 23.1763 73.6014 23.8208 73.2024 24.3887C72.8034 24.9565 72.2356 25.4015 71.499 25.7238C70.7777 26.046 69.926 26.2072 68.9439 26.2072ZM83.1969 13.1092C84.1637 13.1092 85.0231 13.3164 85.7751 13.7307C86.5424 14.1451 87.1409 14.7589 87.5706 15.5723C88.0156 16.3856 88.2381 17.3678 88.2381 18.5187V26H85.637V18.9101C85.637 17.7745 85.353 16.9074 84.7852 16.3089C84.2174 15.6951 83.4425 15.3881 82.4603 15.3881C81.4781 15.3881 80.6955 15.6951 80.1123 16.3089C79.5445 16.9074 79.2606 17.7745 79.2606 18.9101V26H76.6364V8.96577H79.2606V14.7896C79.7057 14.2525 80.2658 13.8382 80.941 13.5466C81.6316 13.255 82.3836 13.1092 83.1969 13.1092ZM94.2096 15.204C94.6547 14.5901 95.2608 14.0914 96.0282 13.7077C96.8108 13.3087 97.6779 13.1092 98.6293 13.1092C99.7496 13.1092 100.762 13.3778 101.668 13.9149C102.573 14.452 103.287 15.2193 103.809 16.2168C104.33 17.199 104.591 18.3269 104.591 19.6007C104.591 20.8744 104.33 22.0177 103.809 23.0305C103.287 24.028 102.566 24.8107 101.645 25.3785C100.739 25.9309 99.7343 26.2072 98.6293 26.2072C97.6472 26.2072 96.7724 26.0153 96.0051 25.6317C95.2532 25.248 94.6547 24.757 94.2096 24.1585V26H91.5854V8.96577H94.2096V15.204ZM101.921 19.6007C101.921 18.7259 101.737 17.974 101.369 17.3448C101.016 16.7002 100.54 16.2168 99.9414 15.8946C99.3583 15.5569 98.7291 15.3881 98.0538 15.3881C97.394 15.3881 96.7648 15.5569 96.1663 15.8946C95.5831 16.2322 95.1074 16.7232 94.7391 17.3678C94.3861 18.0123 94.2096 18.772 94.2096 19.6467C94.2096 20.5214 94.3861 21.2887 94.7391 21.9486C95.1074 22.5932 95.5831 23.0842 96.1663 23.4218C96.7648 23.7595 97.394 23.9283 98.0538 23.9283C98.7291 23.9283 99.3583 23.7595 99.9414 23.4218C100.54 23.0689 101.016 22.5625 101.369 21.9026C101.737 21.2427 101.921 20.4754 101.921 19.6007ZM112.688 26.2072C111.491 26.2072 110.409 25.9386 109.442 25.4015C108.475 24.849 107.716 24.0817 107.163 23.0996C106.611 22.1021 106.335 20.9511 106.335 19.6467C106.335 18.3576 106.619 17.2143 107.186 16.2168C107.754 15.2193 108.529 14.452 109.511 13.9149C110.493 13.3778 111.591 13.1092 112.803 13.1092C114.015 13.1092 115.113 13.3778 116.095 13.9149C117.077 14.452 117.852 15.2193 118.42 16.2168C118.988 17.2143 119.271 18.3576 119.271 19.6467C119.271 20.9358 118.98 22.0791 118.397 23.0766C117.814 24.0741 117.016 24.849 116.003 25.4015C115.005 25.9386 113.9 26.2072 112.688 26.2072ZM112.688 23.9283C113.363 23.9283 113.992 23.7671 114.576 23.4449C115.174 23.1226 115.657 22.6392 116.026 21.9947C116.394 21.3501 116.578 20.5675 116.578 19.6467C116.578 18.7259 116.402 17.9509 116.049 17.3217C115.696 16.6772 115.228 16.1938 114.645 15.8715C114.061 15.5493 113.432 15.3881 112.757 15.3881C112.082 15.3881 111.453 15.5493 110.869 15.8715C110.302 16.1938 109.849 16.6772 109.511 17.3217C109.174 17.9509 109.005 18.7259 109.005 19.6467C109.005 21.0125 109.35 22.0714 110.041 22.8233C110.747 23.56 111.629 23.9283 112.688 23.9283ZM120.991 19.6007C120.991 18.3269 121.252 17.199 121.774 16.2168C122.311 15.2347 123.032 14.475 123.937 13.9379C124.858 13.3855 125.871 13.1092 126.976 13.1092C127.973 13.1092 128.84 13.3087 129.577 13.7077C130.329 14.0914 130.928 14.5748 131.373 15.1579V13.3164H134.02V26H131.373V24.1124C130.928 24.7109 130.321 25.2097 129.554 25.6087C128.787 26.0077 127.912 26.2072 126.93 26.2072C125.84 26.2072 124.843 25.9309 123.937 25.3785C123.032 24.8107 122.311 24.028 121.774 23.0305C121.252 22.0177 120.991 20.8744 120.991 19.6007ZM131.373 19.6467C131.373 18.772 131.188 18.0123 130.82 17.3678C130.467 16.7232 129.999 16.2322 129.416 15.8946C128.833 15.5569 128.204 15.3881 127.528 15.3881C126.853 15.3881 126.224 15.5569 125.641 15.8946C125.058 16.2168 124.582 16.7002 124.214 17.3448C123.861 17.974 123.684 18.7259 123.684 19.6007C123.684 20.4754 123.861 21.2427 124.214 21.9026C124.582 22.5625 125.058 23.0689 125.641 23.4218C126.239 23.7595 126.868 23.9283 127.528 23.9283C128.204 23.9283 128.833 23.7595 129.416 23.4218C129.999 23.0842 130.467 22.5932 130.82 21.9486C131.188 21.2887 131.373 20.5214 131.373 19.6467ZM140.091 15.1579C140.474 14.5134 140.981 14.0147 141.61 13.6617C142.255 13.2934 143.014 13.1092 143.889 13.1092V15.8255H143.221C142.193 15.8255 141.411 16.0864 140.873 16.6082C140.352 17.1299 140.091 18.0353 140.091 19.3244V26H137.467V13.3164H140.091V15.1579ZM145.426 19.6007C145.426 18.3269 145.687 17.199 146.209 16.2168C146.746 15.2347 147.467 14.475 148.373 13.9379C149.294 13.3855 150.314 13.1092 151.434 13.1092C152.263 13.1092 153.076 13.2934 153.874 13.6617C154.688 14.0147 155.332 14.4904 155.808 15.0889V8.96577H158.455V26H155.808V24.0894C155.378 24.7032 154.78 25.2097 154.013 25.6087C153.261 26.0077 152.394 26.2072 151.411 26.2072C150.306 26.2072 149.294 25.9309 148.373 25.3785C147.467 24.8107 146.746 24.028 146.209 23.0305C145.687 22.0177 145.426 20.8744 145.426 19.6007ZM155.808 19.6467C155.808 18.772 155.624 18.0123 155.256 17.3678C154.903 16.7232 154.435 16.2322 153.851 15.8946C153.268 15.5569 152.639 15.3881 151.964 15.3881C151.289 15.3881 150.659 15.5569 150.076 15.8946C149.493 16.2168 149.017 16.7002 148.649 17.3448C148.296 17.974 148.12 18.7259 148.12 19.6007C148.12 20.4754 148.296 21.2427 148.649 21.9026C149.017 22.5625 149.493 23.0689 150.076 23.4218C150.675 23.7595 151.304 23.9283 151.964 23.9283C152.639 23.9283 153.268 23.7595 153.851 23.4218C154.435 23.0842 154.903 22.5932 155.256 21.9486C155.624 21.2887 155.808 20.5214 155.808 19.6467Z" fill="white"/>
<path d="M0.959135 18.2235H6.71394C6.96832 18.2235 7.21228 18.1225 7.39215 17.9426C7.57203 17.7628 7.67308 17.5188 7.67308 17.2644V9.59134C7.67308 9.33696 7.57203 9.093 7.39215 8.91313C7.21228 8.73325 6.96832 8.6322 6.71394 8.6322H0.959135C0.704756 8.6322 0.460797 8.73325 0.280924 8.91313C0.101051 9.093 0 9.33696 0 9.59134V17.2644C0 17.5188 0.101051 17.7628 0.280924 17.9426C0.460797 18.1225 0.704756 18.2235 0.959135 18.2235ZM0 24.9375C0 25.1919 0.101051 25.4358 0.280924 25.6157C0.460797 25.7956 0.704756 25.8966 0.959135 25.8966H6.71394C6.96832 25.8966 7.21228 25.7956 7.39215 25.6157C7.57203 25.4358 7.67308 25.1919 7.67308 24.9375V21.101C7.67308 20.8466 7.57203 20.6026 7.39215 20.4227C7.21228 20.2429 6.96832 20.1418 6.71394 20.1418H0.959135C0.704756 20.1418 0.460797 20.2429 0.280924 20.4227C0.101051 20.6026 0 20.8466 0 21.101V24.9375ZM9.59135 24.9375C9.59135 25.1919 9.6924 25.4358 9.87227 25.6157C10.0521 25.7956 10.2961 25.8966 10.5505 25.8966H16.3053C16.5597 25.8966 16.8036 25.7956 16.9835 25.6157C17.1634 25.4358 17.2644 25.1919 17.2644 24.9375V18.2235C17.2644 17.9692 17.1634 17.7252 16.9835 17.5453C16.8036 17.3655 16.5597 17.2644 16.3053 17.2644H10.5505C10.2961 17.2644 10.0521 17.3655 9.87227 17.5453C9.6924 17.7252 9.59135 17.9692 9.59135 18.2235V24.9375ZM10.5505 15.3461H16.3053C16.5597 15.3461 16.8036 15.2451 16.9835 15.0652C17.1634 14.8853 17.2644 14.6414 17.2644 14.387V9.59134C17.2644 9.33696 17.1634 9.093 16.9835 8.91313C16.8036 8.73325 16.5597 8.6322 16.3053 8.6322H10.5505C10.2961 8.6322 10.0521 8.73325 9.87227 8.91313C9.6924 9.093 9.59135 9.33696 9.59135 9.59134V14.387C9.59135 14.6414 9.6924 14.8853 9.87227 15.0652C10.0521 15.2451 10.2961 15.3461 10.5505 15.3461Z" fill="white"/>
</svg>
