<svg width="20" height="18" viewBox="0 0 20 18" fill="none" xmlns="http://www.w3.org/2000/svg">
<path opacity="0.2" fill-rule="evenodd" clip-rule="evenodd" d="M19.997 10.1934C19.3339 10.8288 18.5364 11.3252 17.6515 11.6355C17.0263 13.0292 15.6265 14 14 14H10.0584V12.728C10.0584 12.3164 9.58889 12.0811 9.25915 12.3274L6.40212 14.4614C6.13389 14.6617 6.1345 15.0639 6.40332 15.2635L9.26036 17.384C9.59028 17.6289 10.0584 17.3934 10.0584 16.9825V16H14C17.2491 16 19.8949 13.4176 19.997 10.1934Z" fill="#7949CB"/>
<path fill-rule="evenodd" clip-rule="evenodd" d="M20 5C20 7.76142 17.7614 10 15 10C12.581 10 10.5633 8.28224 10.1 6H6C3.79086 6 2 7.79086 2 10V11C2 12.6569 3.34315 14 5 14V16C2.23858 16 0 13.7614 0 11V10C0 6.68629 2.68629 4 6 4H10.1C10.5633 1.71776 12.581 0 15 0C17.7614 0 20 2.23858 20 5ZM13.61 4.588L14.73 3.668V7.5H15.69V2.5H14.818L13.05 3.924L13.61 4.588Z" fill="#7949CB"/>
</svg>
