<svg width="20" height="16" viewBox="0 0 20 16" fill="none" xmlns="http://www.w3.org/2000/svg">
<path opacity="0.2" fill-rule="evenodd" clip-rule="evenodd" d="M0 2.02258V4.02258H2.55458C3.78894 4.02258 4.95416 4.59247 5.71199 5.56682L9.70931 10.7062C10.846 12.1677 12.5939 13.0226 14.4454 13.0226H16V14.6362C16 15.0654 16.5052 15.2951 16.8287 15.013L19.7636 12.453C19.9916 12.2541 19.9922 11.8999 19.7648 11.7004L16.8298 9.12422C16.5067 8.8406 16 9.07005 16 9.5V11.0226H14.4454C13.2111 11.0226 12.0458 10.4527 11.288 9.47835L7.29069 4.33894C6.15396 2.87742 4.40612 2.02258 2.55458 2.02258H0Z" fill="#7949CB"/>
<path fill-rule="evenodd" clip-rule="evenodd" d="M16.8287 6.01299C16.5052 6.29512 16 6.0654 16 5.63619V4.02259H14.4454C13.2111 4.02259 12.0458 4.59248 11.288 5.56683L7.29069 10.7062C6.15396 12.1678 4.40612 13.0226 2.55458 13.0226H0V11.0226H2.55458C3.78894 11.0226 4.95416 10.4527 5.71199 9.47835L9.70931 4.33895C10.846 2.87743 12.5939 2.02259 14.4454 2.02259H16V0.500006C16 0.0700601 16.5067 -0.159393 16.8298 0.124231L19.7648 2.70039C19.9922 2.89995 19.9916 3.25412 19.7636 3.45297L16.8287 6.01299Z" fill="#7949CB"/>
</svg>
